<svg fill="currentColor"
    height="50"
    width="50"
    viewBox="0 0 50 50"
    xmlns="http://www.w3.org/2000/svg">
    <g>
        <path d="M39.7,31.3c-2.1,0-4.1,0-6.2,0c-7,0-14.1,0-21.1,0c-1.1,0-1.6-0.5-1.8-1.5C9.1,21.6,7.5,13.4,6,5.1C6,4.7,5.8,4.5,5.4,4.5
		C4,4.3,2.7,4,1.2,3.7c0.2-1,0.3-2.1,0.5-3.1c1.3,0.2,2.6,0.5,3.8,0.7c0.6,0.1,1.2,0.2,1.8,0.3c0.9,0.2,1.3,0.6,1.4,1.4
		c0.3,1.6,0.6,3.2,0.9,4.7c0,0.1,0.1,0.3,0.1,0.5c0.2,0,0.4,0,0.6,0c12.2,0,24.4,0,36.6,0c1.6,0,2.2,0.8,1.7,2.3
		c-1.9,6.3-3.9,12.6-5.8,19c-0.1,0.3-0.1,0.6-0.1,0.9c-0.1,1.3,0.1,2.6-0.2,3.8c-0.4,2.2-2.4,3.7-4.6,3.7c-9.4,0-18.8,0-28.2,0
		c-0.1,0-0.3,0-0.5,0c0-1,0-2,0-3.1c0.2,0,0.4,0,0.6,0c9.3,0,18.6,0,27.9,0c1.2,0,1.8-0.6,1.8-1.8C39.7,32.5,39.7,32,39.7,31.3z
		 M40.1,28.2c1.7-5.6,3.4-11.2,5.1-16.8c-11.6,0-23.2,0-34.9,0c1,5.6,2.1,11.2,3.1,16.8C22.3,28.2,31.2,28.2,40.1,28.2z" />
        <path d="M41.3,44.8c0,2.7-2.1,4.8-4.8,4.8c-2.6,0-4.8-2.2-4.8-4.8c0-2.6,2.1-4.8,4.7-4.8C39.2,40,41.3,42.1,41.3,44.8z M38.3,44.8
		c0-0.9-0.7-1.7-1.6-1.7c-1,0-1.8,0.7-1.8,1.7c0,0.9,0.8,1.7,1.7,1.7C37.6,46.4,38.3,45.7,38.3,44.8z" />
        <path d="M16.5,40c2.7,0,4.9,2.2,4.8,4.8c0,2.7-2.2,4.8-4.9,4.8c-2.7-0.1-4.8-2.2-4.7-4.8C11.8,42,13.9,40,16.5,40z M16.7,43.1
		c-1,0-1.7,0.7-1.7,1.7c0,0.9,0.8,1.7,1.7,1.6c0.9,0,1.6-0.8,1.6-1.7C18.3,43.8,17.6,43.1,16.7,43.1z" />
        <path d="M16.4,18.4c0-1,0-2,0-3.1c7,0,14,0,21,0c0,1,0,2,0,3.1C30.4,18.4,23.4,18.4,16.4,18.4z" />
        <path d="M18,24.8c0-1,0-2,0-3.1c5.9,0,11.8,0,17.7,0c0,1,0,2,0,3.1C29.8,24.8,24,24.8,18,24.8z" />
    </g>
</svg>
