<svg fill="currentColor"
    height="50"
    width="50"
    viewBox="0 0 50 50"
    xmlns="http://www.w3.org/2000/svg">
    <g>
        <path d="M10.2,50.1c-0.8-3-1.6-6-2.4-9C7,38,6.2,34.9,5.3,31.9c0-0.2-0.1-0.3-0.1-0.5C5.6,31.2,6,31.1,6.4,31
		c2.8-0.8,5.5-1.5,8.3-2.2c0.9-0.2,1.1-0.1,1.3,0.8c1.5,5.5,2.9,10.9,4.4,16.4c0.2,0.9,0.1,1.1-0.8,1.4c-2.9,0.9-5.9,1.7-8.8,2.6
		C10.6,49.9,10.4,50,10.2,50.1C10.2,50.1,10.2,50.1,10.2,50.1z M16.6,42.6c0-0.9-0.7-1.6-1.6-1.6c-0.9,0-1.6,0.7-1.6,1.6
		c0,0.9,0.7,1.6,1.6,1.6C15.8,44.2,16.6,43.5,16.6,42.6z" />
        <path d="M28.1,0.1c0.6,0.1,1.3,0.2,1.9,0.3c1.7,0.2,3.4,0.4,5.1,0.6C37.1,1.3,39,1.6,41,1.8c0.6,0.1,1.2,0.1,1.7,0.2
		c0.6,0.1,0.8,0.4,0.7,1c-0.5,3.1-1,6.2-1.5,9.3c-0.4,2.2-0.8,4.4-1.1,6.7c-0.1,0.4-0.2,0.5-0.5,0.4c-0.3,0-0.6,0-0.9-0.1
		c0.1-0.7,0.2-1.4,0.3-2.1c0.4-2.7,0.9-5.5,1.3-8.2c0.1-0.4,0.2-0.8,0.1-1.1c-0.1-0.3-0.6-0.4-0.9-0.6c-1.4-0.8-2-2.1-2-3.7
		c0-0.8,0-0.8-0.8-0.9c-1.4-0.2-2.8-0.4-4.2-0.6c-0.6-0.1-0.6,0-0.7,0.6c-0.1,1.5-1.4,3.1-2.9,3.4C29.1,6.3,28.9,6.5,29,7
		c0.1,2.7,0.2,5.5,0.3,8.2c0.1,1.6,0.1,3.3,0.2,4.9c0,0.4,0.1,0.9,0.1,1.3c0,0.4-0.1,0.6-0.5,0.6c0,0,0,0,0,0
		c-0.8,0.2-0.8,0.2-0.9-0.6C28.1,20,28,18.5,28,17c-0.1-2.8-0.2-5.6-0.3-8.4c-0.1-1.6-0.1-3.1-0.2-4.7c0-0.9,0-1.7-0.1-2.6
		c0-0.5,0.1-1,0.6-1.2C28,0.1,28.1,0.1,28.1,0.1z" />
        <path d="M22.5,43.9c-0.3-1-0.5-1.9-0.8-2.9c-1-3.7-2-7.5-3-11.2c-0.1-0.3-0.1-0.6,0.1-1c0.5-1.1,0.9-2.1,1.4-3.2
		c0.8-1.7,2.3-2.6,4.1-3.2c0.3-0.1,0.5,0,0.6,0.3c0.4,1.5,1.3,2,2.8,1.7c3.1-0.8,6.2-1.6,9.3-2.4c0.8-0.2,1.6-0.4,2.4-0.6
		c1.5-0.2,2.8,0.9,3,2.4c0,0.2,0,0.4,0,0.5c-0.1,0.8,0.3,1.3,0.9,1.8c0.2,0.2,0.4,0.3,0.6,0.5c0.6,0.7,0.8,1.5,0.4,2.4
		c-0.5,1.2-0.4,2.2,0.3,3.3c0.6,0.9,0.5,1.8-0.2,2.6c-0.1,0.1-0.2,0.3-0.3,0.4c-0.4,0.4-0.4,0.8-0.3,1.3c0.8,1.9-0.2,3.4-1.9,4
		C40,41.5,38,42,36,42.5c-1.8,0.5-3.6,1-5.4,1.3c-1.1,0.2-2.3,0.1-3.5,0C25.6,43.6,24.1,43.3,22.5,43.9z" />
        <path d="M25.2,3.2c0,0.4,0.1,0.7,0.1,1c0,0.1-0.2,0.3-0.3,0.4c-0.3,0.1-0.6,0.2-0.9,0.2c0.1,0.5,0.2,0.9,0.3,1.3
		c0.2,1.2-0.2,2.2-1.3,2.8c-0.3,0.2-0.4,0.3-0.3,0.7c0.9,2.5,1.9,5.1,2.8,7.6c0.1,0.3,0.2,0.7,0.2,1c0,0.8,0,1.6,0,2.3
		c-0.6-0.1-1-0.4-1.1-1.1c-0.4-2.2-1.4-4.2-2.2-6.3c-1-2.6-2-5.1-3-7.7c-0.3-0.8-0.1-1.2,0.7-1.3c1.5-0.3,2.9-0.6,4.4-0.9
		C24.8,3.3,25,3.3,25.2,3.2z" />
        <path d="M34.7,13.5c1.1,0,2.1,0.4,2.8,1.3c1.1,1.3,0.9,3.2-0.3,4.3c-1.3,1.1-3.1,1.2-4.5,0.4c-1.1-0.7-1.7-1.9-1.6-2.9
		c0.2-1.5,1.1-2.4,2.5-2.9C33.9,13.5,34.3,13.5,34.7,13.5z" />
    </g>
</svg>
