<svg fill="currentColor"
    height="50"
    width="50"
    viewBox="0 0 50 50"
    xmlns="http://www.w3.org/2000/svg">
    <g>
        <path d="M48.5,30.5c0,0.6,0,1,0,1.6c-0.2,0-0.4,0-0.6,0c-5,0-10,0-15,0c-0.4,0-0.6,0.1-0.8,0.4c-2.1,2.3-4.2,4.7-6.3,7
		c-0.3,0.3-0.6,0.4-1,0.4c-3.6,0-7.2,0-10.8,0c-0.2,0-0.4,0-0.6,0c0,0.2,0,0.4,0,0.5c0,1.6,0,3.1,0,4.7c0,0.7-0.2,0.9-0.8,1.1
		c-2.9,0.7-5.9,1.3-8.8,2c-0.7,0.2-1.3,0.3-2.1,0.2c0-0.2,0-0.5,0-0.8c0-0.5,0.3-0.7,0.7-0.8c3.1-0.7,6.2-1.4,9.4-2.2
		c0-0.2,0-0.3,0-0.5c0-1.6,0-3.2,0-4.7c0-0.9,0.2-1.2,1.1-1.2c0.1,0,0.3,0,0.4,0c0-1.1,0-2.1,0-3.1c-0.9-0.2-1-0.3-1.5,0.5
		C10.3,38.5,8.3,40.9,6,43c-0.2,0.2-0.4,0.4-0.6,0.6c-0.4,0.3-0.8,0.4-1.1,0c-0.8-0.8-1.6-1.5-2.3-2.3c-0.4-0.4-0.3-0.8,0.1-1.2
		c0.7-0.7,1.5-1.5,2.2-2.2c0.5-0.5,0.9-1.1,1.3-1.7c0.5-0.7,0.9-1.5,1.4-2.3c0.1-0.2,0.2-0.4,0-0.6c-0.9-1.2-1-2.4-0.5-3.8
		c0.8-2,1.5-3.9,2.3-5.9c0.1-0.3,0.1-0.5-0.1-0.7c-1.5-1.6-1.8-3.9-0.6-5.7c1.1-1.8,3.4-2.6,5.4-2c2,0.6,3.4,2.6,3.3,4.8
		c-0.1,1.2-0.6,2.2-1.6,3.2c1.1,0.1,2,0.5,3.1,0c2.4-1.1,4.5-2.5,6.4-4.4c1.2-1.2,2.5-2.3,3.8-3.4c-1.1-1.1-1.7-2.4-1.6-4
		c0.1-1.2,0.6-2.2,1.5-3c1.7-1.6,4.4-1.6,6.2-0.1c1.5,1.3,2.5,4,0.5,6.7c1.9,0,3.8,0,5.8,0c0-0.1,0-0.3,0-0.4c0-3.9,0-7.8,0-11.8
		c0-1,0.5-1.3,1.4-0.9c1.9,1,3.9,2,5.8,2.9c0.3,0.2,0.6,0.4,0.6,0.8c0,0.4-0.3,0.6-0.6,0.8c-1.7,0.9-3.4,1.7-5.2,2.6
		c-0.4,0.2-0.5,0.4-0.5,0.8c0,4.7,0,9.3,0,14c0,0.2,0,0.4,0,0.6c-0.5,0-1,0-1.6,0c0-1.5,0-3.1,0-4.6c-0.2,0-0.3,0-0.5,0
		c-1.8,0-3.7,0-5.5,0c-0.4,0-0.5,0.1-0.5,0.4c-0.1,0.7-0.3,1.3-0.4,2c0.9,0.1,1.7,0.3,2.5,0.4c1.3,0.2,2,1.1,2,2.4
		c0,1.8,0,3.7,0,5.6C41.8,30.5,45.1,30.5,48.5,30.5z M32.9,27.4c-0.8-0.3-1.2,0-1.5,0.6c-0.7,1.2-1.5,2.3-2.3,3.5
		c-0.1,0.2-0.2,0.3-0.4,0.5c-1.2,1.2-2.5,2.5-3.7,3.7c-0.4,0.4-0.8,0.4-1.3,0c-0.7-0.7-1.5-1.4-2.2-2.2c-0.4-0.4-0.4-0.8,0-1.3
		c0.9-0.9,1.8-1.8,2.7-2.7c0.1-0.1,0.3-0.3,0.4-0.4c0.6-1.1,1.3-2.1,1.9-3.2c0.1-0.1,0.1-0.3,0-0.4c-0.3-0.6-0.6-1.2-0.9-1.8
		c-0.5,0.4-1.1,0.9-1.8,1.3c-1.7,1-3.4,2-5.1,2.9c-0.2,0.1-0.5,0.2-0.8,0.2c-1,0-2,0-3,0c-0.1,0.6-0.3,1.1-0.4,1.7
		c0.8,0.1,1.6,0.3,2.4,0.4c1.3,0.2,2.1,1.1,2.1,2.5c0,1.7,0,3.4,0,5.1c0,0.1,0,0.3,0,0.4c1.9,0,3.7,0,5.5,0c0.3,0,0.5-0.1,0.7-0.3
		c1.9-2.1,3.9-4.3,5.8-6.4c0.6-0.6,1-1.4,2.1-1C32.9,29.5,32.9,28.5,32.9,27.4z M17.3,38.4c0-1.8,0-3.6,0-5.4c0-0.8-0.2-1-0.9-1.1
		c-1-0.2-2-0.3-3-0.5c-0.6-0.1-0.8-0.5-0.7-1c0.2-1,0.5-2,0.7-2.9c0.1-0.5,0.4-0.7,0.9-0.7c1.1,0,2.1,0,3.2,0c0.2,0,0.5-0.1,0.7-0.2
		c1.3-0.7,2.6-1.5,3.9-2.2c0.1-0.1,0.2-0.1,0.3-0.2c-0.2-0.4-0.5-0.7-0.7-1c-1.1,0.6-2.3,1.1-3.3,1.7c-0.7,0.4-1.3,0.4-2,0.3
		c-1.9-0.4-3.9-0.8-5.9-0.7c-0.3,0-0.4,0.1-0.5,0.3c-0.7,1.8-1.4,3.6-2.1,5.4c-0.6,1.6,0.4,3.1,2.1,3.3c1.4,0.1,2.8,0.3,4.2,0.4
		c0.5,0,0.8,0.3,0.8,0.9c0,0.2,0,0.4,0,0.5c0,1.1,0,2.2,0,3.3C15.7,38.4,16.5,38.4,17.3,38.4z M40.7,16.5c-3.7,0-7.2,0-10.8,0
		c-0.1,0-0.4,0.1-0.4,0.3c-0.7,1.9-1.5,3.7-2.2,5.6c-0.5,1.5,0.5,3,2,3.1c1.4,0.1,2.9,0.3,4.3,0.4c0.6,0.1,0.8,0.3,0.8,0.9
		c0,1.1,0,2.3,0,3.4c0,0.1,0,0.2,0,0.4c0.8,0,1.5,0,2.3,0c0-0.2,0-0.3,0-0.4c0-1.7,0-3.3,0-5c0-0.8-0.2-1-1-1.1
		c-1-0.2-2-0.3-2.9-0.5c-0.6-0.1-0.9-0.5-0.8-1.1c0.2-1.2,0.5-2.4,0.7-3.6c0.1-0.7,0.3-0.8,1-0.8c2.1,0,4.2,0,6.2,0
		c0.2,0,0.3,0,0.5,0C40.7,17.5,40.7,17,40.7,16.5z M31.3,14.9c1.7,0,3.1-1.4,3.2-3.1c0-1.7-1.4-3.1-3.1-3.1c-1.7,0-3.2,1.4-3.2,3.1
		C28.2,13.5,29.6,14.9,31.3,14.9z M8.7,19.6c0,1.7,1.4,3.1,3.1,3.1c1.7,0,3.1-1.4,3.1-3.1c0-1.7-1.4-3.2-3.1-3.2
		C10.1,16.5,8.7,17.9,8.7,19.6z M24.3,34.1c1.8-1.4,4.9-5.1,5.7-6.9c-0.5-0.1-1.1-0.1-1.6-0.3c-0.5-0.2-0.7,0-0.9,0.4
		c-1,1.7-1.9,3.5-3.5,4.7c-0.3,0.3-0.6,0.5-1,0.8C23.5,33.3,23.9,33.7,24.3,34.1z M8.2,34.6c-1.2,2.3-2.6,4.4-4.6,6
		c0.5,0.5,0.8,0.9,1.2,1.3c2.3-2,4.2-4.2,5.7-6.9C9.8,34.8,9.1,34.7,8.2,34.6z M46,5.6c-1.3-0.6-2.5-1.2-3.7-1.8c0,1.3,0,2.4,0,3.7
		C43.5,6.8,44.7,6.2,46,5.6z M27.1,18.6C27,18.6,27,18.6,27.1,18.6c-1.4,1.1-2.7,2.3-4.1,3.5c0.3,0.4,0.5,0.7,0.7,1.1
		c0.7-0.5,1.3-1,1.9-1.5c0.1-0.1,0.2-0.2,0.3-0.3C26.3,20.5,26.7,19.6,27.1,18.6z" />
        <path d="M9.9,8.7c-2.4,0-4.8,0-7.2,0c-0.8,0-1.1-0.3-1-1.1c0.2-2.5,1.4-4.3,3.7-5.4c2.3-1,4.5-0.7,6.5,0.8c0.3,0.2,0.6,0.3,0.9,0.2
		C15.4,2.8,18,5,18.1,7.7c0,0.7-0.3,1-0.9,1C14.7,8.7,12.3,8.7,9.9,8.7z M3.3,7.1c4.4,0,8.7,0,13,0c-0.3-1.7-2.2-2.7-3.9-2.2
		c-0.5,0.2-0.9,0.1-1.2-0.3C10,3.4,8.6,3,7,3.3C5.1,3.7,3.5,5.4,3.3,7.1z" />
        <path d="M13.4,11.8c0-0.5,0-1,0-1.5c0.5,0,1,0,1.5,0c0,0.5,0,1,0,1.5C14.4,11.8,13.9,11.8,13.4,11.8z" />
        <path d="M18,10.3c0,0.5,0,1,0,1.5c-0.5,0-1,0-1.5,0c0-0.5,0-1,0-1.5C17,10.3,17.5,10.3,18,10.3z" />
        <path d="M19.7,10.3c0.5,0,1,0,1.5,0c0,0.5,0,1,0,1.5c-0.5,0-1,0-1.5,0C19.7,11.3,19.7,10.8,19.7,10.3z" />
    </g>
</svg>
