<svg height="100" width="100" viewBox="0 0 100 100"
    xmlns="http://www.w3.org/2000/svg">
    <g>
        <title>background</title>
        <rect fill="none" id="canvas_background" height="102" width="102" y="-1" x="-1"/>
    </g>
    <g>
        <title>Layer 1</title>
        <g id="svg_1">
            <polygon points="7.663799285888672,28.709701538085938 51.25579833984375,3.5417022705078125 94.84880065917969,28.709701538085938 94.84880065917969,96.28170013427734 7.663799285888672,96.28170013427734 " fill="#FFFFFF" id="stroke"/>
            <path fill="#1CC29F" id="Fill-1" d="m39.41934,60.52192l10.57061,-6.10258l-43.99001,-25.39768l0,25.08125c3.29656,-1.77685 7.45004,-2.70179 12.20578,-2.70179c10.35467,0 16.90786,4.39751 21.21362,9.1208"/>
            <path fill="#1CC29F" id="Fill-4" d="m20.01085,95.52957c4.40624,0 7.7284,-1.29941 7.7284,-4.62219c0,-3.39455 -4.26145,-4.69458 -9.53396,-5.99461c-3.92505,-1.00545 -8.4299,-2.01401 -12.20517,-3.91631l0,6.44397c3.17799,5.12834 8.4505,8.08914 14.01073,8.08914"/>
            <polygon points="93.97990417480469,79.81644439697266 93.97990417480469,29.021724700927734 49.989891052246094,54.41939926147461 " fill="#52595F" id="Fill-6"/>
            <polygon points="93.97927856445312,29.021846771240234 49.989891052246094,3.624176025390625 5.999874114990234,29.021846771240234 49.989891052246094,54.41889953613281 " fill="#ACE4D6" id="Fill-9"/>
            <path fill="#373B3F" id="Fill-12" d="m49.98964,54.41852l-10.57061,6.10321l-11.33078,6.54258c-2.89526,-2.30235 -6.57753,-3.96312 -9.95461,-3.96312c-4.11728,0 -6.2118,1.37118 -6.2118,3.90009c0,2.92522 2.8653,4.31949 6.83529,5.44976c0.83319,0.23716 1.71194,0.46371 2.62627,0.68902c8.73946,2.09452 20.43971,4.76698 20.43971,16.75557c0,2.51705 -0.52987,5.02536 -1.69072,7.31399l53.84664,0l0,-17.39342l-43.98939,-25.39768z"/>
        </g>
    </g>
</svg>
